PathFileType	4	(X/Y/Z)	67_1_41_p0_0-192_filt_butterworth.trc
DataRate	CameraRate	NumFrames	NumMarkers	Units	OrigDataRate	OrigDataStartFrame	OrigNumFrames
60.0	60.0	6	27	m	60.0	24	192
Frame#	Time	RHip			RKnee			RAnkle			RBigToe			RSmallToe			RHeel			LHip			LKnee			LAnkle			LBigToe			LSmallToe			LHeel			Neck			Head			Nose			RShoulder			RElbow			RWrist			RThumb			RIndex			RPinky			LShoulder			LElbow			LWrist			LThumb			LIndex			LPinky			
		X1	Y1	Z1	X2	Y2	Z2	X3	Y3	Z3	X4	Y4	Z4	X5	Y5	Z5	X6	Y6	Z6	X7	Y7	Z7	X8	Y8	Z8	X9	Y9	Z9	X10	Y10	Z10	X11	Y11	Z11	X12	Y12	Z12	X13	Y13	Z13	X14	Y14	Z14	X15	Y15	Z15	X16	Y16	Z16	X17	Y17	Z17	X18	Y18	Z18	X19	Y19	Z19	X20	Y20	Z20	X21	Y21	Z21	X22	Y22	Z22	X23	Y23	Z23	X24	Y24	Z24	X25	Y25	Z25	X26	Y26	Z26	X27	Y27	Z27	
24	0.4	0.36235406271616954	0.4544181380524558	-0.11014310804410779	0.34695632607951055	0.6257949926640263	0.31743704010065366	0.3395401875951038	0.7954821746321254	0.7484527840665679	0.34506171332415103	0.5901865683412606	0.7970072728698149	0.40026748588207905	0.6410691092509723	0.8000959949124988	0.3157305913481954	0.8788601619171814	0.7993731392755521	0.17208796085688252	0.513756544059517	-0.10286730045125027	0.16757400878686426	0.6856428175778198	0.3372832823714152	0.1663615849013255	0.8142437086462758	0.7625380184001154	0.194176852655974	0.6150572992691763	0.7909335272614488	0.15232919876003423	0.6372035306903971	0.7800964986755561	0.17951193304790694	0.8794421286600901	0.815724545989616	0.2986334319246835	0.36342266015093216	-0.635080738680141	0.3219392765295922	0.24290595111075589	-0.8561696361887112	0.310845605371927	0.1852393823663889	-0.7207752457572634	0.44210727502443337	0.3716959003341885	-0.5264657023302899	0.46088255177516935	0.43462328073836437	-0.2594688510612352	0.3473391711668171	0.41965643232831956	-0.0374889113064517	0.27005993417789415	0.4057003568073773	0.05394745569061789	0.2724460207884372	0.4284248769799962	0.06789764750155736	0.2778815473877385	0.4276165898872212	0.06739493648970248	0.1464669605282995	0.37131552205717866	-0.5541341247865152	0.13353298710060624	0.4105006241327598	-0.28813726929741523	0.2404160805571264	0.3297070796802895	-0.07177201374956817	0.32415265917490055	0.31793018354116487	0.006204469250672711	0.32466609877762187	0.3707150632131181	0.050435008473987845	0.27280844310250396	0.3963408118627183	0.06463082151905089
25	0.4166666666666667	0.3619670602042676	0.4544601852535939	-0.10915600128997943	0.34606899134292635	0.625038625466274	0.31834005962903617	0.33874890879838526	0.791796026624334	0.7475450385413428	0.3444099935822261	0.5847635112111146	0.7964700390203966	0.40020755108756034	0.6409471574599197	0.8000559090963358	0.3156827118985523	0.8791863652394022	0.7993712556416859	0.17214766944928767	0.5128857531416137	-0.10390223679123398	0.1675976766159359	0.6856337388113375	0.33734590403466136	0.16605142090737457	0.8129840933895802	0.7600351743320088	0.19391295190695468	0.6132962485878476	0.7904815071791463	0.152389263489541	0.6366518194636923	0.7779490626146759	0.1792382210806847	0.8798614091325588	0.8157717464487055	0.29866134932770105	0.3634158716938244	-0.6350872218731398	0.32105230491150755	0.239430052565445	-0.854622182511374	0.31007768970152977	0.18243859568722437	-0.7201672323088254	0.44209842649335984	0.3716634912919337	-0.526451008468686	0.46089221422847965	0.4351722530098701	-0.2579127095392933	0.3471931139795014	0.41872725168670444	-0.03629073884780169	0.2692431753708878	0.40932481109755525	0.05426598831813165	0.271440329993354	0.42860583024962645	0.0679593883865859	0.2791137904679254	0.42410480716579063	0.06733007394393982	0.14644815806553022	0.37131283561148437	-0.5541597400893864	0.1335552973681375	0.41047804661617426	-0.28814284905240334	0.24133676442282354	0.3296194376298495	-0.07247684891260403	0.3236828675595736	0.3237209112185641	0.006114456101376304	0.32421206319952023	0.3736665331653261	0.050526099252308956	0.27171363155568057	0.3998433288455689	0.06440639456815347
26	0.4333333333333333	0.3616805838383584	0.4548038516456475	-0.10864214731629303	0.3458164626645316	0.6247511741040301	0.31969782775330235	0.3380530777288704	0.7885665711525142	0.746751751079127	0.3446288186661564	0.5806500830054538	0.7952667388770591	0.4002361332242576	0.640810212632602	0.8000411793656859	0.3156980755357128	0.8794406072496356	0.80043565998	0.1721858496449004	0.5125393897331658	-0.10347812801816968	0.16763046905227322	0.68568516722689	0.33794142655953563	0.16581554280318275	0.8119435328665636	0.758347821140522	0.19322541903267362	0.6092411535803373	0.789433530200939	0.15225236954497268	0.6365790901282106	0.7771751959669052	0.1790036087358868	0.8794142414127635	0.8164167496477873	0.29868093533538076	0.36340524566368076	-0.6350803261925987	0.32037463723544546	0.2370000303898056	-0.853342410490289	0.309777247987884	0.18140649504822584	-0.7199325018128803	0.4420954673777073	0.3716431062204255	-0.5264442742577017	0.46082055705113756	0.43505910184300456	-0.2572822191374441	0.34706525497000523	0.4159389471394195	-0.034310629687787204	0.26779496970893896	0.41118391048614483	0.05422120735933542	0.26859597627132653	0.4289764993100232	0.0686458960236677	0.2807884649471553	0.4193296195727159	0.06725797899515638	0.14643176687271836	0.37127779374208725	-0.554164378814576	0.13356680600565726	0.41044595783298427	-0.28814548849549104	0.24341907759616066	0.3295703126434022	-0.0735175862656639	0.3226809566617977	0.33371572812028216	0.0059480719550549805	0.3238487328069204	0.3795793726432706	0.05060501987316533	0.27128145709379636	0.40131784089992734	0.06337104801933932
27	0.45	0.3615665328389398	0.4554228782400534	-0.10845623262073478	0.346092280587004	0.6247055471819744	0.32064202022937854	0.33803254072477606	0.788571541576351	0.7467496617915016	0.34499020396447166	0.5790607021558759	0.7937844739738452	0.40033692300182105	0.6406124889120905	0.8000311919211394	0.31582849939478913	0.8796331950421974	0.8015865762986798	0.17222453906513266	0.5125663390233847	-0.10241931495635108	0.1677087145994581	0.6856161262014152	0.33889706474691256	0.16571193303534162	0.811471239857009	0.7577726974997687	0.19230836099626325	0.6040958029358654	0.7880833485725282	0.1521348101042568	0.6365403015977837	0.7771803217011601	0.1789307443744108	0.8784847841470953	0.817800798663551	0.2986888909481148	0.363388919410286	-0.6350743339817373	0.32011019717164685	0.23622560831972728	-0.8526046608988314	0.30977680685686715	0.18147804267393974	-0.7199296119941356	0.44209514466597577	0.3716251082827228	-0.5264362475710971	0.4606926993498303	0.43447829295631146	-0.2573521474430505	0.3471301430998035	0.41207694024153985	-0.032337785146279524	0.2661494083871684	0.4136379598556714	0.05513752489525454	0.2649729207364788	0.4304297171338496	0.07028218855711497	0.28212396625848163	0.41552704672086754	0.06721417107578756	0.14642115938341477	0.37122217120123674	-0.5541547071413299	0.13358389511454513	0.410439013682581	-0.288151676903263	0.2454758884232449	0.3295284481020906	-0.07448033819842985	0.3215247480902472	0.34563443590342585	0.005989905244997484	0.3230392855577619	0.38913914605870037	0.0507520013292697	0.2712586805895353	0.4014594588488738	0.06189395647912324
28	0.4666666666666667	0.3619944381406035	0.4560965455283554	-0.10837649991968544	0.3465165621349219	0.6246497602929534	0.3209691803945231	0.3384460649941675	0.7906227734315927	0.7472541567463351	0.3452426809982084	0.5790830366064552	0.7926891218607149	0.4004431510927505	0.6402096486647271	0.799988083650639	0.31600379880052054	0.8797537746603205	0.8021450888377047	0.17227440493282764	0.5128235924815647	-0.10162756130033705	0.16775760366864914	0.6852304980178173	0.33947055336704784	0.1656935698253357	0.8114251715432945	0.7578557618076645	0.1916053042767265	0.6002660333097922	0.7870674175686097	0.1520927978181259	0.6364883197566463	0.7773574984970874	0.17888401366971793	0.8779998954167274	0.8191241491302398	0.2986894911633283	0.3633544923073377	-0.6350979590018404	0.3201363101233465	0.23637961141278385	-0.8523798679632142	0.30985525237984285	0.18176197286935453	-0.7199706297633135	0.4420992745188817	0.3716042234304844	-0.5264198444315652	0.46061924373716495	0.4339344646178836	-0.25766644206892625	0.3476023516806581	0.4091406291745626	-0.03114370910451407	0.26542858590340357	0.418603406784811	0.057495554184401235	0.2630230215687036	0.43328176578631417	0.072347935164562	0.2827237795325836	0.41387206743912164	0.06722872271531262	0.14641524181237567	0.3711599555196479	-0.5541393562443391	0.133640605636668	0.4104696512879614	-0.2881680963875016	0.24672341848804538	0.32946344400023353	-0.0749849371098152	0.32077806490755095	0.3567537582089654	0.006336830513217624	0.3218398873751683	0.3981600790400487	0.05098519730451231	0.27130752053518165	0.40088918637553167	0.06085783923664548
29	0.4833333333333333	0.36325251700321054	0.4565816994770098	-0.10829541126615719	0.3467797906949137	0.6245696467176398	0.32133230658577755	0.3384154163952931	0.7905472701657168	0.7472550080314495	0.3454675977121084	0.5794873696515991	0.7922506502471621	0.40050747447668633	0.6396840659032823	0.7998918435497687	0.31611943040129725	0.8797594595579655	0.8021998827747617	0.17235615333734752	0.5133406379316969	-0.10129597923060057	0.16764945835447292	0.6845456476824008	0.338845771045812	0.1657008739361551	0.8115225261306557	0.7580868961375101	0.19131364267158052	0.598734587067174	0.7866618729178178	0.15210078547524938	0.636461182023993	0.7774876495001313	0.178740477045916	0.8782629847858113	0.8191798813644284	0.2986876037839555	0.36330287039464154	-0.6351528082174777	0.320250395527266	0.23668073173230356	-0.8524077593120624	0.3099124268355224	0.18189914946466562	-0.7199761971255235	0.44211218063891405	0.371586094838988	-0.5264018564660161	0.46069245994751706	0.43372259452785145	-0.25803795357084147	0.3485345894849495	0.4079774092039129	-0.030779207237564072	0.2673316920111458	0.42514805164243497	0.06007979601527194	0.2647981696373477	0.4367850068444726	0.07374667044931137	0.2828310937332736	0.41381667998193833	0.067317747839263	0.14640457384596664	0.3711085138014671	-0.55412347244511	0.13374498992456296	0.4105092676390439	-0.28819592727347865	0.2473472854543482	0.32939087791319666	-0.07472468100771826	0.32107576305899244	0.36388516991617964	0.006268940621254251	0.32122999912561945	0.4016962403029525	0.05124106667549433	0.27133750282822167	0.3991986325093788	0.06077760551410735
